<?xml version="1.0" encoding="UTF-8" standalone="no"?>
<!-- Created with Inkscape (http://www.inkscape.org/) -->

<svg
   xmlns:dc="http://purl.org/dc/elements/1.1/"
   xmlns:cc="http://creativecommons.org/ns#"
   xmlns:rdf="http://www.w3.org/1999/02/22-rdf-syntax-ns#"
   xmlns:svg="http://www.w3.org/2000/svg"
   xmlns="http://www.w3.org/2000/svg"
   xmlns:sodipodi="http://sodipodi.sourceforge.net/DTD/sodipodi-0.dtd"
   xmlns:inkscape="http://www.inkscape.org/namespaces/inkscape"
   width="47mm"
   height="48mm"
   viewBox="0 0 47 48"
   version="1.1"
   id="svg8"
   inkscape:version="0.92.1 r15371"
   sodipodi:docname="wheel.svg">
  <defs
     id="defs2" />
  <sodipodi:namedview
     id="base"
     pagecolor="#ffffff"
     bordercolor="#666666"
     borderopacity="1.0"
     inkscape:pageopacity="0.0"
     inkscape:pageshadow="2"
     inkscape:zoom="1"
     inkscape:cx="-143.03699"
     inkscape:cy="-103.23238"
     inkscape:document-units="mm"
     inkscape:current-layer="layer1"
     showgrid="false"
     inkscape:window-width="1920"
     inkscape:window-height="1017"
     inkscape:window-x="-8"
     inkscape:window-y="-8"
     inkscape:window-maximized="1" />
  <metadata
     id="metadata5">
    <rdf:RDF>
      <cc:Work
         rdf:about="">
        <dc:format>image/svg+xml</dc:format>
        <dc:type
           rdf:resource="http://purl.org/dc/dcmitype/StillImage" />
        <dc:title></dc:title>
      </cc:Work>
    </rdf:RDF>
  </metadata>
  <g
     inkscape:label="Layer 1"
     inkscape:groupmode="layer"
     id="layer1"
     transform="translate(0,-249)">
    <path
       style="opacity:1;fill:#ffffff;fill-opacity:1;stroke:#ffffff;stroke-width:2;stroke-linejoin:miter;stroke-miterlimit:4;stroke-dasharray:none;stroke-dashoffset:0;stroke-opacity:1;paint-order:markers stroke fill"
       d="m 20.891668,291.54157 c -4.029321,-0.62192 -7.548291,-2.39452 -10.383474,-5.23043 -5.5043369,-5.50577 -6.8521048,-13.85144 -3.362601,-20.82197 1.792302,-3.58025 4.648848,-6.39185 8.320504,-8.1896 4.413768,-2.1611 9.264715,-2.48459 13.938104,-0.92947 8.270801,2.75219 13.453713,10.93163 12.345035,19.48237 -1.054029,8.12924 -7.374062,14.49293 -15.584318,15.69197 -1.238498,0.18088 -4.092879,0.17932 -5.27325,-0.003 z m 5.018712,-4.5239 c 2.899808,-0.49667 5.285463,-1.743 7.431197,-3.88224 1.629259,-1.62434 2.623521,-3.19007 3.348683,-5.27341 2.290643,-6.58085 -0.64335,-13.86746 -6.842718,-16.994 -3.420094,-1.72486 -7.301791,-1.98833 -10.890471,-0.73919 -2.075183,0.72232 -3.63931,1.71612 -5.27435,3.35116 -2.018942,2.01894 -3.171706,4.12548 -3.8076255,6.95799 -0.2775921,1.23645 -0.2994025,4.31591 -0.03921,5.53621 1.2401095,5.81609 5.6653405,10.09065 11.4767315,11.08598 1.115775,0.1911 3.354729,0.1704 4.597763,-0.0425 z"
       id="path4810"
       inkscape:connector-curvature="0" />
    <path
       style="opacity:1;fill:#ffffff;fill-opacity:1;stroke:#ffffff;stroke-width:1.99999988;stroke-linejoin:round;stroke-miterlimit:3.5999999;stroke-dasharray:none;stroke-dashoffset:0;stroke-opacity:1;paint-order:markers stroke fill"
       d="m 20.949733,254.72576 1.4e-5,-4.08172 h 2.499879 2.499889 l 10e-7,4.08172 c -2e-6,3.74442 -0.01557,4.06457 -0.188394,3.87456 -0.245584,-0.26987 -4.377364,-0.26987 -4.622997,0 -0.172811,0.19013 -0.188384,-0.13008 -0.188392,-3.87456 z"
       id="path4812"
       inkscape:connector-curvature="0" />
    <path
       style="opacity:1;fill:#ffffff;fill-opacity:1;stroke:#ffffff;stroke-width:1.99999988;stroke-linejoin:round;stroke-miterlimit:3.5999999;stroke-dasharray:none;stroke-dashoffset:0;stroke-opacity:1;paint-order:markers stroke fill"
       d="m 8.5347268,262.1325 -2.8862021,-2.88623 1.767681,-1.76768 1.7676888,-1.76769 2.8862125,2.88622 c 2.647704,2.6477 2.863076,2.88509 2.606513,2.87294 -0.364481,-0.0172 -3.28609,2.90443 -3.268952,3.26895 0.01225,0.25664 -0.225188,0.0412 -2.8729412,-2.60651 z"
       id="path4812-7"
       inkscape:connector-curvature="0" />
    <path
       style="opacity:1;fill:#ffffff;fill-opacity:1;stroke:#ffffff;stroke-width:1.99999988;stroke-linejoin:round;stroke-miterlimit:3.5999999;stroke-dasharray:none;stroke-dashoffset:0;stroke-opacity:1;paint-order:markers stroke fill"
       d="m 5.072705,276.16403 -4.08172593,-2e-5 8e-7,-2.49988 -8e-7,-2.49989 4.08172603,10e-6 c 3.7444171,0 4.0645668,0.0156 3.8745578,0.18839 -0.2698887,0.24557 -0.2698737,4.37736 -10e-7,4.623 0.190134,0.17281 -0.1300987,0.18836 -3.8745569,0.18839 z"
       id="path4812-7-4"
       inkscape:connector-curvature="0" />
    <path
       style="opacity:1;fill:#ffffff;fill-opacity:1;stroke:#ffffff;stroke-width:1.99999988;stroke-linejoin:round;stroke-miterlimit:3.5999999;stroke-dasharray:none;stroke-dashoffset:0;stroke-opacity:1;paint-order:markers stroke fill"
       d="m 12.377237,288.32351 -2.8862312,2.88621 -1.7676815,-1.76769 -1.7676897,-1.76768 2.8862231,-2.88621 c 2.6477033,-2.64771 2.8851143,-2.86306 2.8729393,-2.60652 -0.0172,0.36449 2.904432,3.28609 3.268955,3.26896 0.25664,-0.0122 0.0412,0.22518 -2.606515,2.87293 z"
       id="path4812-7-4-3"
       inkscape:connector-curvature="0" />
    <path
       style="opacity:1;fill:#ffffff;fill-opacity:1;stroke:#ffffff;stroke-width:1.99999988;stroke-linejoin:round;stroke-miterlimit:3.5999999;stroke-dasharray:none;stroke-dashoffset:0;stroke-opacity:1;paint-order:markers stroke fill"
       d="m 26.075972,291.80235 -1.5e-5,4.08174 -2.499886,-1e-5 -2.499884,1e-5 10e-6,-4.08173 c -5e-6,-3.74442 0.0156,-4.06457 0.188387,-3.87456 0.245571,0.26989 4.37736,0.26987 4.623004,0 0.172845,-0.1901 0.188359,0.1301 0.188384,3.87455 z"
       id="path4812-7-4-3-9"
       inkscape:connector-curvature="0" />
    <path
       style="opacity:1;fill:#ffffff;fill-opacity:1;stroke:#ffffff;stroke-width:1.99999988;stroke-linejoin:round;stroke-miterlimit:3.5999999;stroke-dasharray:none;stroke-dashoffset:0;stroke-opacity:1;paint-order:markers stroke fill"
       d="m 38.419332,284.49045 2.886216,2.88624 -1.767694,1.76767 -1.767678,1.7677 -2.886212,-2.88623 c -2.647708,-2.6477 -2.863054,-2.88512 -2.606517,-2.87294 0.364486,0.0172 3.286087,-2.90443 3.268957,-3.26895 -0.0122,-0.25665 0.225185,-0.0412 2.872928,2.60651 z"
       id="path4812-7-4-3-9-7"
       inkscape:connector-curvature="0" />
    <path
       style="opacity:1;fill:#ffffff;fill-opacity:1;stroke:#ffffff;stroke-width:1.99999988;stroke-linejoin:round;stroke-miterlimit:3.5999999;stroke-dasharray:none;stroke-dashoffset:0;stroke-opacity:1;paint-order:markers stroke fill"
       d="m 42.066015,270.98398 4.081742,2e-5 -1.6e-5,2.49988 1.6e-5,2.49989 -4.081733,-2e-5 c -3.744419,1e-5 -4.064573,-0.0156 -3.874562,-0.18839 0.269893,-0.24556 0.269873,-4.37735 5e-6,-4.62299 -0.190105,-0.17286 0.130097,-0.18837 3.874548,-0.18839 z"
       id="path4812-7-4-3-9-7-4"
       inkscape:connector-curvature="0" />
    <path
       style="opacity:1;fill:#ffffff;fill-opacity:1;stroke:#ffffff;stroke-width:1.99999988;stroke-linejoin:round;stroke-miterlimit:3.5999999;stroke-dasharray:none;stroke-dashoffset:0;stroke-opacity:1;paint-order:markers stroke fill"
       d="m 34.99246,258.4559 2.886242,-2.88622 1.76767,1.7677 1.767701,1.76767 -2.886235,2.88621 c -2.647697,2.64771 -2.885118,2.86306 -2.872941,2.60652 0.01721,-0.36448 -2.904425,-3.28609 -3.268944,-3.26895 -0.256655,0.0122 -0.04121,-0.22519 2.606507,-2.87293 z"
       id="path4812-7-4-3-9-7-4-6"
       inkscape:connector-curvature="0" />
  </g>
</svg>
